<?xml version="1.0" encoding="UTF-8"?>
<svg width="512px" height="512px" viewBox="0 0 512 512" version="1.1" xmlns="http://www.w3.org/2000/svg" xmlns:xlink="http://www.w3.org/1999/xlink">
    <!-- Generator: Sketch 56.3 (81716) - https://sketch.com -->
    <title>icon 512</title>
    <desc>Created with Sketch.</desc>
    <g id="icon-512" stroke="none" stroke-width="1" fill="none" fill-rule="evenodd">
        <g id="dead" transform="translate(39.000000, 39.000000)">
            <circle id="Oval" fill="#222222" cx="217.395" cy="217.395" r="217.395"></circle>
            <g id="Group-12" transform="translate(88.000000, 70.000000)">
                <path d="M246.874737,165.439373 C247.657897,173.406851 249.666407,180.518839 252.861218,186.799903 C258.687163,198.25383 260.952186,208.241784 258.858928,217.109632 C256.435679,227.37545 248.659089,234.218111 237.432183,237.292538 L236.993888,237.412563 L195.147117,245.529508 C193.869949,247.04252 193.688563,248.665385 194.306506,251.312136 C197.393035,264.53224 193.165747,275.804293 181.657067,281.21714 L129.220034,308.550679 L76.1220344,280.52307 C64.637336,275.104433 60.4206624,263.840962 63.504351,250.633025 C64.1222943,247.986273 63.9409083,246.363409 62.6637402,244.850396 L20.8169696,236.733452 L20.3786739,236.613427 C9.15176873,233.538999 1.37517821,226.696339 -1.04807054,216.430521 C-3.1413283,207.562672 -0.876305368,197.574718 4.94963921,186.120792 C8.14444995,179.839728 10.1529608,172.72774 10.9361201,164.760261 L2.32298157,177.781175 L-4.22679351,151.18708 C-28.4591023,52.796476 8.02781246,-0.44072983 114.515385,-11.9307495 L115.157187,-12 L144.406447,-12 L145.048249,-11.9307495 C251.041072,-0.494113352 286.420967,52.862453 262.037651,151.866191 L255.487876,178.460286 L246.874737,165.439373 Z" id="Path" stroke="#EEEEEE" stroke-width="24" stroke-linejoin="round"></path>
                <path d="M147.630662,167.728484 C143.158992,171.486621 142.707507,178.622231 151.497886,183.870685 C158.784551,190.482569 163.692903,196.629194 173.481235,197.957791 C183.560689,198.099608 202.613089,198.408121 214.63664,188.979811 C229.720664,174.235871 219.31925,149.673004 214.63664,142.865812 C210.917444,133.588027 186.763022,161.611714 147.630662,167.728484 Z" id="Path-20" fill="#EEEEEE"></path>
                <path d="M38.6306624,167.728484 C34.1589919,171.486621 33.7075073,178.622231 42.4978864,183.870685 C49.7845506,190.482569 54.6929028,196.629194 64.4812353,197.957791 C74.560689,198.099608 93.6130893,198.408121 105.63664,188.979811 C120.720664,174.235871 110.31925,149.673004 105.63664,142.865812 C101.917444,133.588027 77.7630219,161.611714 38.6306624,167.728484 Z" id="Path-20-Copy" fill="#EEEEEE" transform="translate(74.507079, 169.500000) scale(-1, 1) translate(-74.507079, -169.500000) "></path>
                <path d="M128.817649,198 C125.834424,196.143696 122.172938,196.143696 117.833191,198 C113.426819,199.516927 110.606692,202.671847 109.37281,207.464761 C107.169609,214.455122 106.547699,222.221168 107.507079,230.762897 C108.520185,236.70094 111.334101,240.779974 115.948828,243 C120.563555,245.220026 126.228652,245.220026 132.944119,243 C142.371421,239.170381 148.225741,235.653398 150.507079,232.449053 C153.929087,227.642536 153.303711,223.849121 150.507079,218.331238 C147.710448,212.813355 133.292488,200.784456 128.817649,198 Z" id="Path-21" fill="#EEEEEE"></path>
            </g>
        </g>
    </g>
</svg>