<svg xmlns="http://www.w3.org/2000/svg" width="512" height="512" viewBox="0 0 512 512">
  <g fill="none" fill-rule="evenodd" transform="translate(39 39)">
    <circle cx="217.395" cy="217.395" r="217.395" fill="#222"/>
    <g fill="#EEE" transform="translate(91 55)">
      <path fill-rule="nonzero" d="M130.105392,319.122756 C158.769656,310.770475 181.79232,292.16988 199.713899,264.983589 C214.636486,242.346646 225.734599,214.291898 233.92659,181.371076 C239.203926,160.163257 243.063272,137.945822 246.224007,112.921227 C247.81131,100.354019 251.389189,66.3391002 251.853284,62.6549931 C251.988912,61.578347 252.120954,60.5767013 252.250652,59.6421445 L254,47.0369332 L241.256227,47.0369332 C226.839336,47.0369332 189.290073,32.1096824 131.393716,2.56853665 L126.359757,0 L121.319034,2.55527548 C63.2499241,31.992042 25.5321699,47.0802291 11.4308875,47.0802291 L0,47.0802291 L0.336191019,58.4899477 C4.79577786,209.840305 45.3524539,297.68754 124.069582,319.174242 L127.094771,320 L130.105392,319.122756 Z M22.8799955,67.9034421 C43.7280065,63.6531618 77.7227324,49.3211641 126.327492,24.8671395 C174.149846,49.0747212 207.893736,63.3056291 228.952424,67.7166112 C227.661486,79.5420779 225.360581,100.954646 224.199499,110.147312 C221.139565,134.373836 217.422446,155.772498 212.382747,176.025337 C196.252439,240.847556 169.015858,283.092258 126.886656,296.91408 C63.6732704,277.630309 28.3940454,202.138645 22.8799955,67.9034421 Z"/>
      <path d="M161.074366,129.539998 C179.004073,161.508232 206.307208,169.492747 242.983769,153.493541 C236.786853,197.020396 230.300421,208.361727 280.571808,232.407381 C226.124723,235.134558 240.185387,257.441895 242.940643,283.873265 C196.257651,237.794988 183.873834,263.061014 143.943601,295.333111 C143.848466,261.556352 150.460252,236.748649 109.810776,237.823565 C121.755443,197.923099 112.598469,197.697919 106.862179,190.933151 C137.813598,191.185323 155.884327,170.720939 161.074366,129.539998 Z" transform="rotate(24 193.717 212.437)"/>
    </g>
  </g>
</svg>
