<svg xmlns="http://www.w3.org/2000/svg" viewBox="0 0 512 512">
  <g fill="none" fill-rule="evenodd" transform="translate(39 39)">
    <circle cx="216.4" cy="216.4" r="216.4" fill="#222"/>
    <g fill="#FFF">
      <path d="M97 129l-6-24c-29 33-44 71-44 115 0 65 44 121 75 142 21 7 12 7 21 7-21-19-55-47-62-75 0-16 2-29 7-37l-4-10 4-3-10-15 19-9-13-38c-4-10-4-20 0-31l13-22z"/>
      <path d="M215 365c-9 7-75 4-112-68v-28h6l3-56-9-46v-19l9-15 13-16 25-43c6-7 13-10 21-10h72c18 4 29 16 31 34 2 19 0 48-6 87-2 9-1 16 3 22 6 9-53 22-65-28-3-12 0-24 6-34 2-6 2-11 0-16-4 0-9 4-13 10-12 0-18 4-18 12l12 16v34h6l-3 28 3 9-15 6c-4 5-3 7 3 7s13-2 22-7c-9 25-9 42 0 50 2 6 1 10-3 12-7 5-10 12-10 22 0 16-6 16 19 37zm68-279c4 21 5 39 3 56 19 0 53 3 66-13 3-27-13-43-16-46-2-2-20-1-53 3z"/>
      <path d="M370 254c4-7-42-9-140-7-10 11-11 27-3 50 25-2 61 1 109 9 23 3 34-15 34-52zm-43 74c-4-8-41-12-109-12-3 0-9 12-9 25 9 9 9 12 18 15 10 3 72 9 87 6 11-2 15-13 13-34zm56-112c4-24 4-44 0-59-9-4-22-5-41-3-25 7-42 10-53 10-8 4-10 15-6 34 4 12-2 22-18 28-25 3-44-10-47-6 0 8 2 13 6 15s18 1 41-3h71c25 0 40-5 47-16z"/>
    </g>
  </g>
</svg>