<svg xmlns="http://www.w3.org/2000/svg" viewBox="0 0 512 512">
  <g fill="none" fill-rule="evenodd" transform="translate(39 39)">
    <circle cx="217.4" cy="217.4" r="217.4" fill="#222"/>
    <g fill="#EEE" transform="translate(49 66)">
      <path d="M144 0h59l-10.2 190h-39z"/>
      <circle cx="172" cy="271" r="32"/>
      <path d="M220.7 83.2L217 68c50.4-16 82.8-32 97-48-13 25-44 60.7-51.4 111.9.8 35.7 72.5 55.8 72.5 55.8-68 11.5-81.2 47.2-40 107.2a1390 1390 0 01-68.3-38.6l-9.8-17.8 36 10.3c-2.4-32.9 8.6-53.2 32.8-61.1-48.3-15.8-54.4-73.9-20.2-117.2-22 6.6-37 10.8-44.9 12.7zM121.2 238.5l-2.7 16.7c-50.5 13.6-82.8 28.5-97 44.5 13-25 44-57.2 51.3-108.4C72 155.6 0 131.2 0 131.2c57.2-8.3 72.8-38.5 46.8-90.5a774.4 774.4 0 0078.3 33.6v17.1L79 77.6c3.9 26.4-5.3 44.2-27.7 53.6 47 14.8 62 62.8 27.6 115.6 22-6.6 36-9.3 42.2-8.3z"/>
    </g>
  </g>
</svg>