<svg xmlns="http://www.w3.org/2000/svg" viewBox="0 0 512 512">
  <g fill="none" fill-rule="evenodd" transform="translate(39 39)">
    <circle cx="217.4" cy="217.4" r="217.4" fill="#222"/>
    <path stroke="#EEE" stroke-linejoin="round" stroke-width="24" d="M334.9 235.4c.8 8 2.8 15.1 6 21.4 5.8 11.5 8 21.4 6 30.3-2.5 10.3-10.2 17.1-21.5 20.2l-.4.1-41.9 8.1c-1.2 1.5-1.4 3.2-.8 5.8 3 13.2-1.1 24.5-12.6 30l-52.5 27.3-53-28c-11.6-5.5-15.8-16.8-12.7-30 .6-2.6.4-4.2-.8-5.7l-41.9-8.2h-.4c-11.2-3.2-19-10-21.4-20.3-2.1-8.8.1-18.8 6-30.3a59.5 59.5 0 006-21.3l-8.7 13-6.5-26.6C59.5 122.8 96 69.6 202.5 58l.7-.1H233C339 69.6 374.4 123 350 222l-6.5 26.6-8.6-13z"/>
    <path fill="#EEE" d="M235.6 237.7c-4.4 3.8-4.9 11 3.9 16.2 7.3 6.6 12.2 12.7 22 14 10 .2 29.1.5 41.1-9 15.1-14.7 4.7-39.2 0-46-3.7-9.3-27.8 18.7-67 24.8zM198.4 237.7c4.5 3.8 5 11-3.9 16.2-7.3 6.6-12.2 12.7-22 14-10 .2-29.1.5-41.1-9-15.1-14.7-4.7-39.2 0-46 3.7-9.3 27.9 18.7 67 24.8zM216.8 268c-3-1.9-6.6-1.9-11 0a12.7 12.7 0 00-8.4 9.5c-2.2 7-2.9 14.7-1.9 23.3 1 5.9 3.8 10 8.4 12.2 4.7 2.2 10.3 2.2 17 0 9.5-3.8 15.3-7.3 17.6-10.6 3.4-4.8 2.8-8.6 0-14a94.3 94.3 0 00-21.7-20.4z"/>
  </g>
</svg>