<svg xmlns="http://www.w3.org/2000/svg" viewBox="0 0 512 512">
  <g fill="none" fill-rule="evenodd" transform="translate(29 33)">
    <circle cx="217.4" cy="229.4" r="217.4" fill="#222"/>
    <g fill="#EEE">
      <path d="M209 191c9.6 17.2 24.2 21.5 43.9 12.9-3.3 23.3-6.8 29.4 20.1 42.3-29.1 1.5-21.6 13.5-20.1 27.7-25-24.8-31.7-11.2-53 6.1 0-18.1 3.4-31.4-18.3-30.9 6.4-21.4 1.5-21.5-1.6-25.2 16.6.2 26.2-10.8 29-32.9z"/>
      <path fill-rule="nonzero" d="M265.6 386.5c-6-68.8 28.5-111.2 103.4-127.2-56.4-59.8-78.8-70-25.4-162.4-88.7 56-90.5 6.2-114.5-37.3-24.1 122.1-70.7 97-168.2 91.7 36 51.9 73 82.6 7.8 125.8 61.6 48 47.5 58.4 45.7 75.1 48.5-34.5 98.9-23.1 151.2 34.3zm-130-71a63 63 0 00-2.2-4.7c-5.4-10.1-14.5-20.9-28.4-33.4 17-16.9 24.5-35 22-55.4a88.6 88.6 0 00-13-35.1l-5.6-8.8 8.6.8c21.7 1.7 36.4 1.6 50.3-.8 31.5-5.6 52.9-23.3 67.8-57.6 6.9 9.1 14.9 16 25 20.1a61 61 0 0035.9 2.8l-2.8 9.7a80.5 80.5 0 0010.6 67 189 189 0 0022.8 28c-44 17.8-71.5 48-81 89.3-36.4-26.6-73.6-34.3-110-22z"/>
    </g>
  </g>
</svg>