<svg xmlns="http://www.w3.org/2000/svg" xmlns:xlink="http://www.w3.org/1999/xlink" viewBox="0 0 512 512">
  <defs>
    <circle id="a" cx="218.4" cy="217.8" r="217.4"/>
  </defs>
  <g fill="none" fill-rule="evenodd" transform="translate(38 38)">
    <circle cx="218.4" cy="218.5" r="217.4" fill="#222"/>
    <g transform="translate(0 1)">
      <mask id="b" fill="#fff">
        <use xlink:href="#a"/>
      </mask>
      <use fill="#222" xlink:href="#a"/>
      <g fill="#FFF" mask="url(#b)">
        <path d="M235 267a65 65 0 01-34-8c-9 12-18 26-26 41l-17 42 2 9c0 13-11 23-25 23s-25-10-25-23 11-24 24-24c14-13 25-27 32-41s13-28 17-42l-6-9c-22-13-46-20-74-23-32 1-56 1-72 3l-13 2c-20 0-36-15-36-34s16-34 36-34c12 0 23 6 30 15 23 17 45 26 67 28 20 2 39 0 58-3 4-11 11-21 21-28l-3-4c-13-20-28-37-44-52-10-3-18-12-18-22 0-13 11-24 25-24a24 24 0 0125 27c4 23 13 45 27 68a64 64 0 0146-2c15-13 29-29 42-48l23-40c-5-6-8-13-8-22 0-18 16-34 36-34 19 0 35 16 35 34a35 35 0 01-36 35c-18 13-32 27-43 43-10 16-19 31-26 47 10 9 16 21 17 34a172 172 0 0079 13c4-6 12-10 20-10 14 0 25 11 25 24s-11 24-25 24c-12 0-21-8-24-19a162 162 0 00-77-8c-2 6-5 11-9 17 4 24 14 53 30 86 22 36 45 57 68 62l-88 50c7-44 4-82-11-112-12-25-27-46-45-61z"/>
      </g>
    </g>
  </g>
</svg>