<svg xmlns="http://www.w3.org/2000/svg" width="512" height="512" viewBox="0 0 512 512">
  <g fill="none" fill-rule="evenodd" transform="translate(38.606 38.606)">
    <circle cx="217.394" cy="217.394" r="216.427" fill="#222"/>
    <g fill="#FFF" transform="translate(41.926 43.479)">
      <polygon points="135.923 295.434 111.619 230.001 94.793 259.913 53.664 207.567 42.447 226.262 1.318 173.915 38.708 287.956 53.664 263.652 94.793 317.868 107.88 291.695 120.966 308.52"/>
      <polygon points="350.211 295.434 325.908 230.001 309.082 259.913 267.953 207.567 256.736 226.262 215.607 173.915 252.997 287.956 267.953 263.652 309.082 317.868 322.169 291.695 335.255 308.52" transform="matrix(-1 0 0 1 565.818 0)"/>
      <polygon points="171.207 257.962 183.529 257.962 245.141 139.737 199.959 153.304 218.442 66.09 183.529 77.718 171.207 .194 117.81 131.985 162.992 116.48 142.454 211.447 175.314 194.004"/>
    </g>
  </g>
</svg>
