<svg xmlns="http://www.w3.org/2000/svg" width="512" height="512" viewBox="0 0 512 512">
  <g fill="none" fill-rule="evenodd" transform="translate(29 33)">
    <circle cx="217.395" cy="229.395" r="217.395" fill="#222"/>
    <g fill="#EEE" transform="translate(2)">
      <path d="M207.010751,191 C216.614792,208.164683 231.2325,212.455854 250.863874,203.873513 C247.554162,227.238927 244.083763,233.32614 271,246.243486 C241.853111,247.697854 249.384212,259.675593 250.863874,273.865229 C225.864726,249.120751 219.239723,262.68211 197.86943,280 C197.812519,261.867259 201.34764,248.550918 179.586787,249.120751 C185.974107,227.70311 181.072029,227.580602 178,223.948055 C194.569389,224.088921 204.239639,213.106236 207.010751,191 Z"/>
      <path fill-rule="nonzero" d="M163.333426,68.3708481 C197.850607,128.175161 250.38704,143.126239 320.942725,113.224082 C309.047532,194.632664 296.574825,215.841422 393.3125,260.847378 C288.557802,265.914611 315.62478,307.646837 320.942725,357.085643 C231.095118,270.872198 207.284679,318.12199 130.479273,378.460098 C130.274736,315.28293 142.980053,268.886813 64.7709659,270.872198 C87.7271639,196.249949 70.1089637,195.823111 59.068011,183.166777 C118.618838,183.657575 153.373976,145.392266 163.333426,68.3708481 Z M97.6255063,201.116612 C97.9633955,202.77711 98.2367729,204.486161 98.4458002,206.246139 C99.7940541,217.598238 98.495251,231.620338 94.3224977,249.795673 C117.947662,253.88132 134.416487,264.480745 144.149944,282.537296 C149.706603,292.845463 152.471955,304.564424 153.541379,318.903624 C153.802972,322.41115 153.967963,325.623234 154.049811,329.227633 C158.427486,325.556062 161.148892,323.259135 160.62566,323.688857 C177.436548,309.882346 189.541522,301.431912 202.342401,295.460186 C231.267251,281.966485 259.0193,284.252352 290.943636,303.769791 C291.26215,292.329301 293.909253,282.188111 299.766458,272.998792 C306.06049,263.124139 315.208453,255.608708 327.646762,250.084788 C324.826156,247.962942 322.20121,245.836122 319.752643,243.690619 C300.133486,226.499762 291.047556,207.293234 290.046302,182.737432 C289.655275,173.147453 290.415427,162.934617 292.259961,149.322109 C292.353855,148.62918 292.479228,147.742994 292.62955,146.704402 C246.380137,157.425952 206.550778,148.463571 175.142142,120.054003 C160.484828,162.751611 134.421256,190.402813 97.6255063,201.116612 Z" transform="scale(1 -1) rotate(35 934.774 0)"/>
    </g>
  </g>
</svg>
