<svg xmlns="http://www.w3.org/2000/svg" viewBox="0 0 512 512">
  <g fill="none" fill-rule="evenodd" transform="translate(39 39)">
    <circle cx="216.4" cy="216.4" r="216.4" fill="#222"/>
    <g fill="#FFF">
      <path d="M279 41c-45 15-91 38-115 59-25 22-10 22-44 53-23 21-38 51-46 90l-19 41-6 31 40-38c23-43 46-76 68-99 35-34 16-25 35-40l77-72c13-19 16-27 10-25zM183 407c37-15 47-41 68-64 20-24 27-45 55-78 19-22 35-47 47-75l15-42c3-20 3-31 1-35a298 298 0 00-63 65c-28 37-28 55-43 71-10 11-29 45-56 100-21 41-29 61-24 58zM344 57c-46 17-88 52-114 78-25 26-10 27-45 65-23 25-41 60-52 105l-22 41-6 40c8 5 28-13 59-53 46-60 59-84 80-108 22-25 22-53 56-84 23-21 35-37 38-47 10-27 12-40 6-37z"/>
    </g>
  </g>
</svg>