<svg xmlns="http://www.w3.org/2000/svg" viewBox="0 0 512 512">
  <g fill="none" fill-rule="evenodd" transform="translate(37.6 37.6)">
    <circle cx="218.4" cy="218.4" r="217.4" fill="#222"/>
    <path fill="#FFF" fill-rule="nonzero" d="M168.8 381c3.8 17.5 29.6 17 32.7-.6l41-235.3 31.8 144.2c3.3 15 24.1 17.5 31.2 3.8l28.7-55.8H435a259.1 259.1 0 00.4-32.4H324c-6.3 0-12.1 3.5-15 9l-12 23.4-40-181.6c-3.9-17.4-29.7-16.9-32.7.7l-41 235.3-31.8-144.2c-3.7-16.8-28.2-17.2-32.4-.5l-13.5 52.5H1.7l-.7 8.7V224l.4 7.5 117 .5c6.8 0 12.8-4 15.4-9.8l35 159z"/>
  </g>
</svg>