<svg xmlns="http://www.w3.org/2000/svg" width="512" height="512" viewBox="0 0 512 512">
  <g fill="none" fill-rule="evenodd" transform="translate(39 39)">
    <circle cx="217.395" cy="217.395" r="217.395" fill="#222"/>
    <path fill="#EEE" d="M148.93384,373 C152.755179,371.421825 153.710514,368.64509 151.799844,364.669796 C148.93384,358.706854 67.1047027,272.935183 113.549651,168.183827 C175.830432,62.6487146 279.93457,107.130859 290.646621,112.265253 C299.943359,116.426758 352.751377,156.913739 285.586707,244.540832 C248.048615,287.641 169.99921,294.22135 155.66759,243.58433 C150.402847,198.264053 187.267774,174.431168 198.828875,163.094213 C209.918945,155.345703 226.45117,150.986786 235.408432,165.389498 C238.268831,171.567566 241.670115,184.705878 226.631195,195.045856 C204.181096,209.315542 196.78592,219.197263 204.445667,224.691017 C243.358887,238.521907 266.289053,226.158827 273.236166,187.601776 C275.53729,142.060767 250.422852,130.908203 242.569336,130 C219.12793,129.181641 182.167326,131.128174 148.93384,176.470844 C125.191826,206.529744 118.684242,238.818881 129.411088,273.338258 C149.648608,311.828663 188.05829,324.328234 244.640134,310.836972 C312.945231,295.045626 354.187313,249.440638 368.366379,174.022007 C374.570987,96.1284147 335.20757,58.8568296 250.276129,62.2072522 C122.878967,67.232886 87.1331266,140.819554 75.3074592,163.094213 C48.8269257,245.56238 73.3690526,315.530976 148.93384,373 Z"/>
  </g>
</svg>
