<svg xmlns="http://www.w3.org/2000/svg" viewBox="0 0 512 512">
  <g fill="none" fill-rule="evenodd" transform="translate(39 39)">
    <circle cx="217.4" cy="217.4" r="217.4" fill="#222"/>
    <path fill="#EEE" d="M149 373c3.8-1.6 4.7-4.4 2.8-8.3-2.9-6-84.7-91.8-38.3-196.5 62.3-105.6 166.4-61 177.1-56 9.3 4.2 62.2 44.7-5 132.3-37.6 43.1-115.6 49.7-130-1-5.2-45.2 31.7-69 43.2-80.4 11.1-7.8 27.7-12.1 36.6 2.3 2.9 6.2 6.3 19.3-8.8 29.6-22.4 14.3-29.8 24.2-22.2 29.7 39 13.8 61.9 1.5 68.8-37.1 2.3-45.5-22.8-56.7-30.6-57.6-23.5-.8-60.4 1.1-93.7 46.5-23.7 30-30.2 62.3-19.5 96.8 20.2 38.5 58.7 51 115.2 37.5C313 295 354.2 249.4 368.4 174 374.6 96.1 335.2 59 250.3 62.2c-127.4 5-163.2 78.6-175 100.9-26.5 82.5-2 152.4 73.6 209.9z"/>
  </g>
</svg>