<svg xmlns="http://www.w3.org/2000/svg" viewBox="0 0 512 512">
  <g fill="none" fill-rule="evenodd" transform="translate(39 39)">
    <circle cx="216.6" cy="216.4" r="216.4" fill="#222"/>
    <path fill="#FFF" fill-rule="nonzero" d="M256 148c-11-7-25-10-40-10a81 81 0 1078 61 32 32 0 01-53-23c0-12 6-22 15-28zm46 132c25-15 51-37 76-65-27-29-55-51-82-65a105 105 0 016 130zM140 145c-28 14-57 38-86 70 27 30 53 53 79 68a105 105 0 017-138zm75 186c-64 1-127-36-187-108l-6-8 6-8c61-71 123-106 187-105s127 36 189 105l8 8-8 8c-62 71-125 107-189 108z"/>
  </g>
</svg>