<svg xmlns="http://www.w3.org/2000/svg" viewBox="0 0 512 512">
  <g fill="none" fill-rule="evenodd" transform="translate(39 39)">
    <circle cx="217.4" cy="217.4" r="217.4" fill="#222"/>
    <g fill="#EEE">
      <path fill-rule="nonzero" d="M221.1 374.1c28.7-8.3 51.7-27 69.6-54.1 15-22.7 26-50.7 34.2-83.6 5.3-21.2 9.2-43.5 12.3-68.5 1.6-12.5 5.2-46.6 5.7-50.2 0-1.1.2-2.1.4-3L345 102h-12.7c-14.5 0-52-14.9-110-44.4l-5-2.6-5 2.6C154.3 87 116.5 102 102.4 102H91l.3 11.4c4.5 151.3 45 239.2 123.8 260.7l3 .8 3-.9zM114 123c20.8-4.2 54.8-18.6 103.4-43C265.1 104 299 118.3 320 122.7c-1.3 11.8-3.6 33.3-4.8 42.4a563 563 0 01-11.8 66c-16.1 64.7-43.4 107-85.5 120.8-63.2-19.3-98.5-94.8-104-229z"/>
      <path d="M288.6 178.4c3.4 36.5 25 55 65.1 55.2-23.4 37.3-33.9 45 2.2 87.4-50.8-19.6-47 6.5-55.3 31.7-23.9-61-45.5-43-95-29.8 13.6-30.9 29.7-50.8-7.9-66.4 27.2-31.6 19-35.5 16.4-44 28.2 12.8 53 1.4 74.5-34z"/>
    </g>
  </g>
</svg>