<svg xmlns="http://www.w3.org/2000/svg" viewBox="0 0 512 512">
  <g fill="none" fill-rule="evenodd" transform="translate(39 39)">
    <circle cx="217.6" cy="216.4" r="216.4" fill="#222"/>
    <g fill="#FFF">
      <path d="M256 243c41-77 29-141-37-193 90-19 96 44 96 44 6 60-13 109-59 149zM182 247c45 74 107 96 185 64-29 87-86 62-86 62-55-25-88-67-99-126z"/>
      <path d="M222 266c87-3 136-46 148-129 61 69 10 105 10 105-49 36-102 44-158 24zM179 198c-51 71-46 136 13 196-91 7-90-55-90-55 1-61 27-107 77-141zM255 199c-36-79-95-108-176-86 39-83 93-51 93-51 51 32 79 77 83 137z"/>
      <path d="M216 176c-86-9-140 28-162 109-53-75 2-105 2-105 53-30 106-31 160-4z"/>
    </g>
  </g>
</svg>